<svg width="141" height="32" viewBox="0 0 141 32" fill="none" xmlns="http://www.w3.org/2000/svg"><g clip-path="url(#qgerfmb5ua)"><mask id="e55cx3u4ob" style="mask-type:luminance" maskUnits="userSpaceOnUse" x="0" y="0" width="141" height="32"><path d="M0 32h140.73V0H0v32z" fill="#fff"></path></mask><g mask="url(#e55cx3u4ob)" fill="#000"><path d="M31.108.446H0v31.108h31.108V.446zM3.576 21.64c.623-8.594 10.385-10.686 15.171-6.034A7.384 7.384 0 0 0 8.2 22.168v5.958H3.576V21.64zM8.2 11.458a13.1 13.1 0 0 0-4.62 5.722V3.924H8.2v7.534zm19.336 5.722a13.107 13.107 0 0 0-4.619-5.722V3.924h4.619V17.18zm0 10.9h-4.647v-6.511c0-6.879-10.447-13.552-17.355-6.072a12.356 12.356 0 0 1 9.951-5.39 12.15 12.15 0 0 1 12.047 11.542l.004 6.431zM42.401 31.569v-13.8h5.693v13.8h5.344V.431h-5.344v12.68h-5.693V.431h-5.348v31.138h5.348zm16.647-7.547c0 4.4 2.587 7.978 8.194 7.978 5.607 0 8.196-3.579 8.196-7.978V7.978c0-4.4-2.588-7.978-8.194-7.978-5.606 0-8.194 3.579-8.194 7.978l-.002 16.044zm5.347-15.914c0-2.329.69-3.45 2.846-3.45s2.846 1.122 2.846 3.45v15.784c0 2.329-.69 3.45-2.846 3.45s-2.846-1.122-2.846-3.45V8.108zm23.159 11.9h3.407v3.018c0 3.106-.777 4.313-2.933 4.313-1.854 0-2.5-1.294-2.5-3.278v-16c0-2.63 1.078-3.407 2.372-3.407 2.114 0 3.062 1.208 3.062 5.866h5.089V8.536c0-4.658-2.674-8.539-8.022-8.539-5.262 0-7.849 3.579-7.849 7.978v16.043c0 4.96 2.932 7.978 7.159 7.978 2.5 0 3.794-.862 5.39-2.76l.992 2.329h2.587v-15.78h-8.753l-.001 4.223zm22.426-13.37h.086l2.114 13.37h-4.312l2.112-13.37zm-2.888 18.031h5.865l.949 6.9h5.175L113.345.431h-6.642l-5.735 31.138h5.175l.949-6.9zm22.08 6.9V12.118h.086l6.814 19.451h4.658V.431h-4.83v17.811h-.086L129.302.431h-4.964v31.138h4.834z"></path></g></g><defs><clipPath id="qgerfmb5ua"><path fill="#000" d="M0 0h140.73v32H0z"></path></clipPath></defs></svg>